<svg width="622" height="322" viewBox="0 0 622 322" fill="none" xmlns="http://www.w3.org/2000/svg">
<path d="M157.173 233.906L33.9 60.8652H311.264C329.673 63.0779 335.247 69.0914 339 86.0348C339 86.0348 329.755 189.859 326.673 211.883C323.591 233.906 311.264 233.906 311.264 233.906H157.173Z" stroke="#2490EF" stroke-width="10"/>
<path d="M255.791 82.8887V26.2571C251.48 8.72044 245.549 2.68295 221.891 4.23366C221.891 4.23366 187.991 4.23366 169.5 4.23366C151.009 4.23366 151.009 26.2571 151.009 26.2571V82.8887M70.8818 117.497H18.4909M95.5364 145.813H0M107.864 170.982H46.2273M123.273 196.152H30.8182" stroke="#2490EF" stroke-width="8"/>
<ellipse cx="181.827" cy="290.538" rx="30.8182" ry="31.462" fill="#2490EF"/>
<ellipse cx="234.218" cy="192.05" rx="12.3273" ry="12.5848" fill="#2490EF"/>
<path d="M260.541 167.718L241.344 195.54L230.85 183.191L260.541 167.718Z" fill="#2490EF"/>
<ellipse cx="280.445" cy="290.538" rx="30.8182" ry="31.462" fill="#2490EF"/>
<path d="M169.5 196.152C175.098 106.314 307.049 119.528 298.936 196.152" stroke="#2490EF" stroke-width="10"/>
<path d="M370.008 279.056C367.32 279.056 364.568 278.832 361.752 278.384C359 278 356.344 277.424 353.784 276.656C351.288 275.888 349.048 274.928 347.064 273.776C345.656 273.008 344.664 272.016 344.088 270.8C343.512 269.52 343.288 268.24 343.416 266.96C343.608 265.68 344.088 264.56 344.856 263.6C345.688 262.576 346.712 261.936 347.928 261.68C349.208 261.36 350.616 261.584 352.152 262.352C354.776 263.824 357.624 264.912 360.696 265.616C363.832 266.32 366.936 266.672 370.008 266.672C374.68 266.672 378.008 265.968 379.992 264.56C381.976 263.088 382.968 261.264 382.968 259.088C382.968 257.232 382.264 255.76 380.856 254.672C379.448 253.584 376.984 252.656 373.464 251.888L362.616 249.584C356.472 248.304 351.896 246.128 348.888 243.056C345.944 239.92 344.472 235.824 344.472 230.768C344.472 227.568 345.144 224.656 346.488 222.032C347.832 219.408 349.72 217.136 352.152 215.216C354.584 213.296 357.464 211.824 360.792 210.8C364.184 209.776 367.896 209.264 371.928 209.264C375.512 209.264 379.032 209.712 382.488 210.608C385.944 211.44 388.984 212.688 391.608 214.352C392.888 215.12 393.752 216.112 394.2 217.328C394.712 218.48 394.872 219.664 394.68 220.88C394.552 222.032 394.072 223.056 393.24 223.952C392.472 224.848 391.48 225.424 390.264 225.68C389.048 225.936 387.576 225.648 385.848 224.816C383.736 223.728 381.496 222.928 379.128 222.416C376.76 221.904 374.328 221.648 371.832 221.648C369.144 221.648 366.84 222 364.92 222.704C363.064 223.408 361.624 224.4 360.6 225.68C359.64 226.96 359.16 228.432 359.16 230.096C359.16 231.952 359.832 233.456 361.176 234.608C362.52 235.76 364.856 236.688 368.184 237.392L379.032 239.696C385.304 241.04 389.976 243.216 393.048 246.224C396.12 249.168 397.656 253.072 397.656 257.936C397.656 261.136 397.016 264.048 395.736 266.672C394.456 269.232 392.6 271.44 390.168 273.296C387.736 275.152 384.824 276.592 381.432 277.616C378.04 278.576 374.232 279.056 370.008 279.056ZM413.364 278.864C410.996 278.864 409.172 278.224 407.892 276.944C406.676 275.664 406.068 273.84 406.068 271.472V216.848C406.068 214.416 406.676 212.592 407.892 211.376C409.172 210.096 410.996 209.456 413.364 209.456C415.668 209.456 417.428 210.096 418.644 211.376C419.924 212.592 420.564 214.416 420.564 216.848V239.696H419.22C420.692 236.56 422.868 234.16 425.748 232.496C428.692 230.768 432.02 229.904 435.732 229.904C439.508 229.904 442.612 230.64 445.044 232.112C447.476 233.52 449.3 235.696 450.516 238.64C451.732 241.52 452.34 245.2 452.34 249.68V271.472C452.34 273.84 451.7 275.664 450.42 276.944C449.204 278.224 447.412 278.864 445.044 278.864C442.74 278.864 440.948 278.224 439.668 276.944C438.452 275.664 437.844 273.84 437.844 271.472V250.352C437.844 247.088 437.236 244.752 436.02 243.344C434.868 241.872 433.076 241.136 430.644 241.136C427.572 241.136 425.108 242.096 423.252 244.016C421.46 245.936 420.564 248.496 420.564 251.696V271.472C420.564 276.4 418.164 278.864 413.364 278.864ZM485.818 279.056C480.762 279.056 476.346 278.064 472.57 276.08C468.858 274.096 465.978 271.248 463.93 267.536C461.882 263.824 460.858 259.44 460.858 254.384C460.858 250.608 461.434 247.216 462.586 244.208C463.738 241.2 465.402 238.64 467.578 236.528C469.818 234.352 472.474 232.72 475.546 231.632C478.618 230.48 482.042 229.904 485.818 229.904C490.874 229.904 495.258 230.896 498.97 232.88C502.746 234.864 505.658 237.68 507.706 241.328C509.818 244.976 510.874 249.328 510.874 254.384C510.874 258.224 510.266 261.648 509.05 264.656C507.898 267.664 506.234 270.256 504.058 272.432C501.882 274.608 499.226 276.272 496.09 277.424C493.018 278.512 489.594 279.056 485.818 279.056ZM485.818 268.208C487.93 268.208 489.754 267.696 491.29 266.672C492.826 265.648 494.042 264.144 494.938 262.16C495.834 260.112 496.282 257.52 496.282 254.384C496.282 249.712 495.322 246.288 493.402 244.112C491.482 241.872 488.954 240.752 485.818 240.752C483.77 240.752 481.946 241.232 480.346 242.192C478.81 243.152 477.594 244.656 476.698 246.704C475.866 248.688 475.45 251.248 475.45 254.384C475.45 259.056 476.41 262.544 478.33 264.848C480.25 267.088 482.746 268.208 485.818 268.208ZM526.989 296.144C524.621 296.144 522.797 295.504 521.517 294.224C520.301 293.008 519.693 291.184 519.693 288.752V237.392C519.693 235.024 520.301 233.232 521.517 232.016C522.797 230.736 524.557 230.096 526.797 230.096C529.165 230.096 530.957 230.736 532.173 232.016C533.389 233.232 533.997 235.024 533.997 237.392V243.92L532.941 240.176C533.901 237.104 535.821 234.64 538.701 232.784C541.645 230.864 545.005 229.904 548.781 229.904C552.877 229.904 556.461 230.896 559.533 232.88C562.669 234.864 565.101 237.68 566.829 241.328C568.557 244.976 569.421 249.328 569.421 254.384C569.421 259.44 568.557 263.824 566.829 267.536C565.101 271.248 562.701 274.096 559.629 276.08C556.557 278.064 552.941 279.056 548.781 279.056C545.069 279.056 541.773 278.16 538.893 276.368C536.013 274.512 534.061 272.112 533.037 269.168H534.189V288.752C534.189 291.184 533.549 293.008 532.269 294.224C531.053 295.504 529.293 296.144 526.989 296.144ZM544.461 268.208C546.509 268.208 548.301 267.696 549.837 266.672C551.437 265.648 552.653 264.144 553.485 262.16C554.381 260.112 554.829 257.52 554.829 254.384C554.829 249.712 553.869 246.288 551.949 244.112C550.029 241.872 547.533 240.752 544.461 240.752C542.413 240.752 540.589 241.232 538.989 242.192C537.453 243.152 536.237 244.656 535.341 246.704C534.445 248.688 533.997 251.248 533.997 254.384C533.997 259.056 534.957 262.544 536.877 264.848C538.797 267.088 541.325 268.208 544.461 268.208ZM590.026 296.144C588.362 296.144 586.986 295.696 585.898 294.8C584.81 293.904 584.17 292.72 583.978 291.248C583.786 289.84 584.042 288.336 584.746 286.736L591.178 272.528V278.48L574.186 239.504C573.546 237.84 573.322 236.304 573.514 234.896C573.77 233.424 574.474 232.272 575.626 231.44C576.842 230.544 578.506 230.096 580.618 230.096C582.346 230.096 583.722 230.512 584.746 231.344C585.834 232.112 586.826 233.616 587.722 235.856L599.05 264.656H595.978L607.69 235.76C608.586 233.584 609.578 232.112 610.666 231.344C611.818 230.512 613.354 230.096 615.274 230.096C616.938 230.096 618.25 230.544 619.21 231.44C620.234 232.272 620.842 233.392 621.034 234.8C621.29 236.208 621.034 237.744 620.266 239.408L597.706 290.576C596.746 292.752 595.658 294.224 594.442 294.992C593.29 295.76 591.818 296.144 590.026 296.144Z" fill="#2490EF"/>
</svg>

